<svg width="73" height="19" viewBox="0 0 73 19" fill="none" xmlns="http://www.w3.org/2000/svg">
<path d="M5.46416 18L0.160156 1.2H3.25616L6.97616 13.176L10.6722 1.2H13.7682L12.7122 4.536L15.4002 13.176L19.0962 1.2H22.1922L16.8882 18H13.8882L11.1762 9.408L8.46416 18H5.46416ZM21.7077 9.6C21.7077 4.368 24.9477 0.887999 30.1797 0.887999C35.4117 0.887999 38.6757 4.368 38.6757 9.6C38.6757 14.856 35.4117 18.336 30.1797 18.336C24.9477 18.336 21.7077 14.856 21.7077 9.6ZM24.7077 9.6C24.7077 13.272 26.7237 15.576 30.1797 15.576C33.6117 15.576 35.6757 13.272 35.6757 9.6C35.6757 5.952 33.6117 3.648 30.1797 3.648C26.7237 3.648 24.7077 5.952 24.7077 9.6ZM39.8802 18V1.2H47.6802C51.2322 1.2 53.6082 3.576 53.6082 7.248C53.6082 9.864 52.3362 11.856 50.2482 12.72L53.7042 18H50.1522L47.0082 13.2H42.8802V18H39.8802ZM42.8802 10.44H47.3922C49.3362 10.44 50.6082 9.168 50.6082 7.176C50.6082 5.232 49.3362 3.96 47.3922 3.96H42.8802V10.44ZM54.7864 18V1.2H57.7864V8.76L64.4584 1.2H68.2024L61.5304 8.76L68.2744 18H64.7704L59.6104 10.92L57.7864 12.984V18H54.7864ZM69.1302 18V1.2H72.1302V18H69.1302Z" fill="#2F6AFF"/>
</svg>
